<?xml version="1.0" encoding="utf-8"?>
<!-- Generator: Adobe Illustrator 19.1.0, SVG Export Plug-In . SVG Version: 6.00 Build 0)  -->
<svg version="1.1" id="Layer_1" xmlns="http://www.w3.org/2000/svg" xmlns:xlink="http://www.w3.org/1999/xlink" x="0px" y="0px"
	 width="576px" height="162px" viewBox="0 0 576 162" style="enable-background:new 0 0 576 162;" xml:space="preserve">
<style type="text/css">
	.st0{fill:none;stroke:#000000;stroke-linecap:round;stroke-miterlimit:10;}
	.st1{fill:#E07D10;}
	.st2{fill:none;stroke:#E07D10;stroke-width:2;stroke-linecap:round;stroke-miterlimit:10;}
	.st3{fill:none;stroke:#000000;stroke-linecap:round;stroke-linejoin:round;stroke-miterlimit:10;}
	.st4{fill:#FF9C39;stroke:#E07D10;stroke-linecap:round;stroke-linejoin:round;stroke-miterlimit:10;}
	.st5{fill:none;stroke:#000000;stroke-width:1.5;stroke-linecap:round;stroke-linejoin:round;stroke-miterlimit:10;}
	.st6{fill:none;stroke:#000000;stroke-width:2;stroke-linecap:round;stroke-linejoin:round;stroke-miterlimit:10;}
	.st7{fill:none;stroke:#000000;stroke-width:1.5;stroke-linecap:round;stroke-miterlimit:10;}
	.st8{fill:none;stroke:#000000;stroke-width:1.5;stroke-miterlimit:10;}
	.st9{fill:none;stroke:#000000;stroke-miterlimit:10;}
	.st10{fill:none;stroke:#000000;stroke-width:2;stroke-miterlimit:10;}
	.st11{fill:none;stroke:#000000;stroke-width:2;stroke-linecap:round;stroke-miterlimit:10;}
	.st12{fill:none;stroke:#000000;stroke-linecap:round;stroke-linejoin:round;}
	.st13{fill:none;}
	.st14{stroke:#000000;stroke-linecap:round;stroke-linejoin:round;stroke-miterlimit:10;}
	.st15{fill:none;stroke:#000000;stroke-width:1.5;stroke-linejoin:round;stroke-miterlimit:10;}
	.st16{fill:none;stroke:#000000;stroke-linejoin:round;stroke-miterlimit:10;}
	.st17{clip-path:url(#SVGID_2_);fill:none;stroke:#000000;stroke-linejoin:round;stroke-miterlimit:10;}
	.st18{clip-path:url(#SVGID_2_);fill:none;stroke:#ADADEB;stroke-linejoin:round;stroke-miterlimit:10;}
	.st19{clip-path:url(#SVGID_2_);}
	.st20{stroke:#000000;stroke-linejoin:round;stroke-miterlimit:10;}
	.st21{stroke:#000000;stroke-width:3;stroke-linejoin:round;stroke-miterlimit:10;}
	.st22{stroke:#000000;stroke-miterlimit:10;}
	.st23{fill:none;stroke:#000000;stroke-linejoin:round;}
	.st24{fill:none;stroke:#11ACCD;stroke-width:4;stroke-linecap:round;stroke-linejoin:round;}
	.st25{fill:#11ACCD;}
	.st26{fill:none;stroke:#E07D10;stroke-width:3;stroke-linecap:round;stroke-linejoin:round;}
	.st27{fill:none;stroke:#11ACCD;stroke-width:2;stroke-linecap:round;stroke-linejoin:round;}
	.st28{fill:none;stroke:#11ACCD;stroke-width:3;stroke-linecap:round;stroke-linejoin:round;}
	.st29{font-family:'KaTeX_Main-Italic';}
	.st30{font-size:21px;}
	.st31{letter-spacing:1;}
	.st32{font-family:'KaTeX_Main-Regular';}
	.st33{font-size:24px;}
	.st34{fill:#888D93;}
	.st35{stroke:#000000;stroke-linecap:round;stroke-miterlimit:10;}
	.st36{fill:#01A995;}
	.st37{fill:#66AFE9;}
	.st38{fill:none;stroke:#66AFE9;stroke-miterlimit:10;}
</style>
<text transform="matrix(1 0 0 1 65.9998 18)" class="st25 st29 st30 st31">i</text>
<text transform="matrix(1 0 0 1 419.9998 18)" class="st25 st29 st30 st31">i</text>
<g>
	<line class="st3" x1="552" y1="67.2" x2="552" y2="48.6"/>
	<polyline class="st6" points="552,114 543,110.1 561,102.3 543,94.5 561,86.7 543,78.9 561,71.1 552,67.2 	"/>
	<line class="st3" x1="552" y1="138" x2="552" y2="114"/>
	<rect x="540" y="48.6" class="st13" width="24" height="89.4"/>
</g>
<text transform="matrix(1 0 0 1 474.0002 96.5999)" class="st32 st30 st31">R</text>
<text transform="matrix(0.583 0 0 0.583 491.031 103.593)" class="st32 st30">parallel</text>
<g>
	<g>
		<g>
			<line class="st11" x1="66" y1="103.5" x2="66" y2="83.6"/>
			<g>
				<polygon points="72,85.4 66,75 60,85.4 				"/>
			</g>
		</g>
	</g>
	<circle class="st10" cx="66" cy="90" r="18"/>
	<line class="st0" x1="66" y1="30" x2="66" y2="72"/>
	<polyline class="st3" points="66,108 66,150 306,150 	"/>
</g>
<g>
	<circle class="st14" cx="162" cy="150" r="1.5"/>
	<rect x="156" y="144" class="st13" width="12" height="12"/>
</g>
<g>
	<circle class="st14" cx="234" cy="150" r="1.5"/>
	<rect x="228" y="144" class="st13" width="12" height="12"/>
</g>
<text transform="matrix(1 0 0 1 120.0001 96.0019)" class="st32 st30">R1</text>
<text transform="matrix(1 0 0 1 192 96.0019)" class="st32 st30">R2</text>
<text transform="matrix(1 0 0 1 264.0001 96.0019)" class="st32 st30">R3</text>
<g>
	<circle class="st14" cx="162" cy="30" r="1.5"/>
	<rect x="156" y="24" class="st13" width="12" height="30"/>
</g>
<g>
	<circle class="st14" cx="234" cy="30" r="1.5"/>
	<rect x="228" y="24" class="st13" width="12" height="30"/>
</g>
<g>
	<line class="st3" x1="162" y1="66.6" x2="162" y2="30"/>
	<polyline class="st6" points="162,113.4 153,109.5 171,101.7 153,93.9 171,86.1 153,78.3 171,70.5 162,66.6 	"/>
	<line class="st3" x1="162" y1="150" x2="162" y2="113.4"/>
	<rect x="150" y="30" class="st13" width="54" height="120"/>
</g>
<g>
	<line class="st3" x1="234" y1="66.6" x2="234" y2="30"/>
	<polyline class="st6" points="234,113.4 225,109.5 243,101.7 225,93.9 243,86.1 225,78.3 243,70.5 234,66.6 	"/>
	<line class="st3" x1="234" y1="150" x2="234" y2="113.4"/>
	<rect x="222" y="30" class="st13" width="36" height="120"/>
</g>
<g>
	<line class="st3" x1="306" y1="66.6" x2="306" y2="30"/>
	<polyline class="st6" points="306,113.4 297,109.5 315,101.7 297,93.9 315,86.1 297,78.3 315,70.5 306,66.6 	"/>
	<line class="st3" x1="306" y1="150" x2="306" y2="113.4"/>
</g>
<line class="st22" x1="306" y1="30" x2="66" y2="30"/>
<text transform="matrix(1 0 0 1 89.9999 96.0018)" class="st32 st30 st31">I</text>
<text transform="matrix(0.583 0 0 0.583 99.1557 102.995)" class="st32 st30">S</text>
<g>
	<g>
		<path class="st2" d="M42,132c-3.7-8.8-6.2-25.6-6.2-45c0-15.1,1.5-28.7,3.9-38.1"/>
		<g>
			<path class="st1" d="M42,42c0.2,3.6,1,8.3,2.3,11.5l-4.8-3.7l-6.1,0.2C36.4,48.2,39.8,44.9,42,42z"/>
		</g>
	</g>
</g>
<text transform="matrix(1 0 0 1 14.664 48.0019)" class="st1 st32 st33">+</text>
<text transform="matrix(0.583 0 0 0.583 24 113.5937)" class="st1 st32 st33">   </text>
<text transform="matrix(1 0 0 1 14.664 134.4023)" class="st1 st32 st33">−</text>
<text transform="matrix(1 0 0 1 13.1699 90.0019)" class="st1 st29 st30">v</text>
<g>
	<g>
		<g>
			<line class="st11" x1="420" y1="103.5" x2="420" y2="83.6"/>
			<g>
				<polygon points="426,85.4 420,75 414,85.4 				"/>
			</g>
		</g>
	</g>
	<circle class="st10" cx="420" cy="90" r="18"/>
	<polyline class="st0" points="420,72 420,30 552,30 552,48.6 	"/>
	<polyline class="st3" points="420,108 420,150 552,150 552,138 	"/>
</g>
<text transform="matrix(1 0 0 1 443.9999 95.998)" class="st32 st30 st31">I</text>
<text transform="matrix(0.583 0 0 0.583 453.1557 102.9911)" class="st32 st30">S</text>
<g>
	<g>
		<path class="st2" d="M396,132c-3.7-8.8-6.2-25.6-6.2-45c0-15.1,1.5-28.7,3.9-38.1"/>
		<g>
			<path class="st1" d="M396,42c0.2,3.6,1,8.3,2.3,11.5l-4.8-3.7l-6.1,0.2C390.4,48.2,393.8,44.9,396,42z"/>
		</g>
	</g>
</g>
<text transform="matrix(1 0 0 1 368.6639 47.9981)" class="st1 st32 st33">+</text>
<text transform="matrix(0.583 0 0 0.583 377.9999 113.5899)" class="st1 st32 st33">   </text>
<text transform="matrix(1 0 0 1 368.6639 134.3985)" class="st1 st32 st33">−</text>
<text transform="matrix(1 0 0 1 367.1698 89.9981)" class="st1 st29 st30">v</text>
<g>
	<g>
		<line class="st28" x1="78" y1="30" x2="92.9" y2="30"/>
		<g>
			<path class="st25" d="M102,30c-4.3,1.6-9.5,4.3-12.8,7.1l2.6-7.1l-2.6-7.1C92.5,25.7,97.7,28.4,102,30z"/>
		</g>
	</g>
</g>
<g>
	<g>
		<line class="st28" x1="432" y1="30" x2="446.9" y2="30"/>
		<g>
			<path class="st25" d="M456,30c-4.3,1.6-9.5,4.3-12.8,7.1l2.6-7.1l-2.6-7.1C446.5,25.7,451.7,28.4,456,30z"/>
		</g>
	</g>
</g>
</svg>
